<svg width="25" height="24" viewBox="0 0 25 24" fill="none" xmlns="http://www.w3.org/2000/svg">
<path d="M19.0572 11.6576C18.9916 10.3983 18.5537 9.18688 17.7988 8.1768C17.5688 8.4245 17.323 8.65699 17.0628 8.8728C16.2636 9.53668 15.3704 10.0786 14.4124 10.4808C14.546 10.7608 14.6684 11.032 14.7764 11.288V11.2904C14.8069 11.3619 14.8362 11.4339 14.8644 11.5064C16.0756 11.3704 17.3524 11.42 18.59 11.5872C18.7548 11.6096 18.91 11.6336 19.0572 11.6576ZM11.5492 5.6976C12.3288 6.79614 13.0478 7.93651 13.7028 9.1136C14.6812 8.728 15.49 8.2416 16.1412 7.7C16.3673 7.51371 16.58 7.31188 16.778 7.096C15.6268 6.12777 14.1703 5.59787 12.666 5.6C12.2916 5.59974 11.918 5.63213 11.5492 5.6968V5.6976ZM6.46842 10.3976C7.0134 10.3838 7.55773 10.351 8.10042 10.2992C9.41213 10.1819 10.7126 9.962 11.99 9.6416C11.3224 8.48177 10.6017 7.35337 9.83002 6.26C9.00579 6.66832 8.27902 7.24913 7.69901 7.96303C7.119 8.67693 6.69931 9.50723 6.46842 10.3976ZM7.69242 16.028C8.00282 15.5744 8.41082 15.064 8.95242 14.5088C10.1156 13.3168 11.4884 12.3888 13.0772 11.8768L13.1268 11.8624C12.9948 11.5712 12.8708 11.3112 12.746 11.0664C11.2772 11.4944 9.73002 11.7616 8.18842 11.9C7.43642 11.968 6.76202 11.9976 6.26602 12.0024C6.2646 13.4685 6.76865 14.8902 7.69322 16.028H7.69242ZM15.07 17.932C14.7615 16.3762 14.3248 14.8486 13.7644 13.3648C12.1628 13.9464 10.8868 14.7968 9.90042 15.8112C9.50234 16.2131 9.14907 16.657 8.84682 17.1352C9.94986 17.9582 11.2898 18.402 12.666 18.4C13.4899 18.4012 14.3063 18.2428 15.07 17.9336V17.932ZM16.5684 17.072C17.8174 16.1118 18.6683 14.7246 18.958 13.176C18.686 13.108 18.3412 13.04 17.962 12.9872C17.1189 12.8658 16.2634 12.8569 15.418 12.9608C15.8941 14.3039 16.2784 15.6777 16.5684 17.0728V17.072ZM12.666 20C8.24762 20 4.66602 16.4184 4.66602 12C4.66602 7.5816 8.24762 4 12.666 4C17.0844 4 20.666 7.5816 20.666 12C20.666 16.4184 17.0844 20 12.666 20Z" fill="#102226"/>
</svg>
