<svg width="32" height="32" viewBox="0 0 32 32" fill="none" xmlns="http://www.w3.org/2000/svg">
<path d="M32 0H0V32H32V0Z" fill="#ECE8D9"/>
<path d="M16 4.79999L16.6807 12.1395L19.8306 5.47543L17.96 12.6052L23.1992 7.42029L19.0029 13.4802L25.6995 10.4L19.6836 14.6593L27.0298 14.0551L19.92 16L27.0298 17.9449L19.6836 17.3407L25.6995 21.6L19.0029 18.5197L23.1992 24.5797L17.96 19.3948L19.8306 26.5246L16.6807 19.8605L16 27.2L15.3193 19.8605L12.1694 26.5246L14.04 19.3948L8.8008 24.5797L12.9971 18.5197L6.30051 21.6L12.3164 17.3407L4.97015 17.9449L12.08 16L4.97015 14.0551L12.3164 14.6593L6.30051 10.4L12.9971 13.4802L8.8008 7.42029L14.04 12.6052L12.1694 5.47543L15.3193 12.1395L16 4.79999Z" fill="#1C3F3A"/>
</svg>
