<svg width="256" height="256" viewBox="0 0 256 256" fill="none" xmlns="http://www.w3.org/2000/svg">
<path d="M256 0H0V256H256V0Z" fill="#ECE8D9"/>
<path d="M128 38.3999L133.446 97.1161L158.645 43.8034L143.68 100.842L185.594 59.3623L152.023 107.842L205.596 83.1999L157.469 117.274L216.239 112.441L159.36 128L216.239 143.559L157.469 138.726L205.596 172.8L152.023 148.158L185.594 196.637L143.68 155.158L158.645 212.196L133.446 158.884L128 217.6L122.554 158.884L97.3549 212.196L112.32 155.158L70.4064 196.637L103.977 148.158L50.4041 172.8L98.5312 138.726L39.7612 143.559L96.64 128L39.7612 112.441L98.5312 117.274L50.4041 83.1999L103.977 107.842L70.4064 59.3623L112.32 100.842L97.3549 43.8034L122.554 97.1161L128 38.3999Z" fill="#1C3F3A"/>
</svg>
